<svg width="40" height="37" viewBox="0 0 40 37" fill="none" xmlns="http://www.w3.org/2000/svg">
<path d="M33.9992 21.4206V27.2629H40V31.1577H33.9992V37H29.9986V31.1577H23.9978V27.2629H29.9986V21.4206H33.9992ZM36.4795 3.42636C41.0001 7.84701 41.1602 14.8772 36.9596 19.4537L34.1192 16.6883C36.7795 13.7282 36.6395 9.07389 33.6591 6.17223C30.6587 3.25109 25.818 3.13424 22.6776 5.88011L19.9972 8.21703L17.3168 5.88011C14.1564 3.13424 9.33571 3.25109 6.33529 6.17223C3.35487 9.07389 3.21485 13.7282 5.95524 16.7857L22.8176 33.2415L19.9972 36.0068L3.03483 19.4537C-1.16576 14.8772 -1.00574 7.82754 3.5149 3.42636C8.03553 -0.974831 15.2965 -1.13062 19.9972 2.97845C24.6979 -1.13062 31.9589 -0.994305 36.4795 3.42636Z" fill="#A5A5A5"/>
</svg>
