<svg width="43" height="39" viewBox="0 0 43 39" fill="none" xmlns="http://www.w3.org/2000/svg">
<path d="M3.80826 3.89446C8.65148 -1.0427 16.3966 -1.26711 21.5 3.22121C26.6034 -1.28751 34.3285 -1.0631 39.1917 3.89446C44.035 8.83162 44.2551 16.6862 39.8722 21.909L24.3419 37.8017C22.8409 39.3318 20.4793 39.393 18.8983 38.0057L18.6781 37.8017L3.12781 21.909C-1.2551 16.7066 -1.03495 8.83162 3.80826 3.89446ZM6.65015 6.79147C3.22788 10.2801 3.12781 15.8497 6.34995 19.4608L6.65015 19.7668L21.5 34.9047L32.107 24.0919L25.0424 16.8902L22.9209 19.0528C20.5794 21.4397 16.7769 21.4397 14.4353 19.0528C12.0938 16.6658 12.0938 12.7895 14.4353 10.4025L18.6381 6.11822C15.2158 3.32322 10.2525 3.44563 6.95035 6.50585L6.65015 6.81187V6.79147ZM23.6214 12.5651C24.4019 11.7694 25.6628 11.7694 26.4433 12.5651L34.9289 21.2153L36.3499 19.7668C39.8722 16.1761 39.8722 10.3617 36.3499 6.79147C32.9276 3.30282 27.464 3.20081 23.9216 6.48545L23.6214 6.79147L17.2572 13.2791C16.5367 14.0136 16.4767 15.1765 17.0971 15.9925L17.2572 16.1761C17.9777 16.9106 19.1184 16.9718 19.919 16.3394L20.0991 16.1761L23.6414 12.5651H23.6214Z" fill="#A5A5A5"/>
</svg>
