<svg width="39" height="39" viewBox="0 0 39 39" fill="none" xmlns="http://www.w3.org/2000/svg">
<path d="M0 39C0 30.7914 6.64857 24.1429 14.8571 24.1429C23.0657 24.1429 29.7143 30.7914 29.7143 39H26C26 32.8529 21.0043 27.8571 14.8571 27.8571C8.71 27.8571 3.71429 32.8529 3.71429 39H0ZM14.8571 22.2857C8.69143 22.2857 3.71429 17.29 3.71429 11.1429C3.71429 4.99571 8.69143 0 14.8571 0C21.0229 0 26 4.97714 26 11.1429C26 17.3086 21.0043 22.2857 14.8571 22.2857ZM14.8571 18.5714C18.9614 18.5714 22.2857 15.2471 22.2857 11.1429C22.2857 7.03857 18.9614 3.71429 14.8571 3.71429C10.7529 3.71429 7.42857 7.03857 7.42857 11.1429C7.42857 15.2471 10.7529 18.5714 14.8571 18.5714ZM30.2343 25.4429C35.3971 27.7643 39 32.9643 39 39H35.2857C35.2857 34.4686 32.5929 30.5871 28.7114 28.8414L30.2343 25.4614V25.4429ZM28.9714 4.47571C32.6857 5.99857 35.2857 9.65714 35.2857 13.9286C35.2857 19.2586 31.2 23.6414 26 24.1057V20.3729C29.1571 19.9271 31.5714 17.2157 31.5714 13.9471C31.5714 11.3843 30.0857 9.17428 27.9314 8.11571L28.9714 4.51286V4.47571Z" fill="#A5A5A5"/>
</svg>
