<svg width="165" height="66" viewBox="0 0 165 66" fill="none" xmlns="http://www.w3.org/2000/svg">
<mask id="mask0_37_75" style="mask-type:luminance" maskUnits="userSpaceOnUse" x="0" y="0" width="165" height="66">
<path d="M164.408 0H0V66H164.408V0Z" fill="white"/>
</mask>
<g mask="url(#mask0_37_75)">
<path d="M46.937 65.895L49.3553 59.5947H50.2526L52.83 65.895H51.8786L51.1436 63.9858H48.5089L47.8152 65.895H46.9307H46.937ZM48.7539 63.3081H50.8922L50.2335 61.5644C50.0331 61.033 49.8835 60.597 49.7849 60.2566C49.7053 60.6607 49.5908 61.0616 49.4444 61.4593L48.7539 63.3081Z" fill="white"/>
<path d="M58.8757 59.5947H58.042V65.895H58.8757V59.5947Z" fill="white"/>
<path d="M64.759 65.895V59.5947H67.5528C68.1128 59.5947 68.5392 59.652 68.8319 59.7634C69.1247 59.8747 69.357 60.0752 69.532 60.3648C69.707 60.6511 69.7961 60.9661 69.7961 61.313C69.7961 61.7616 69.6529 62.1371 69.3601 62.4426C69.0738 62.748 68.6251 62.9453 68.0205 63.0281C68.2401 63.1362 68.4087 63.2381 68.5233 63.3431C68.7683 63.569 68.9974 63.8458 69.2138 64.1831L70.3115 65.8982H69.2615L68.4278 64.5872C68.1828 64.2086 67.9855 63.9222 67.8264 63.7185C67.6673 63.5181 67.5273 63.3781 67.4032 63.2985C67.2791 63.219 67.1519 63.1649 67.0214 63.1331C66.926 63.1108 66.7732 63.1044 66.5568 63.1044H65.5895V65.9014H64.7559L64.759 65.895ZM65.5927 62.3758H67.3842C67.766 62.3758 68.0619 62.3376 68.2783 62.258C68.4947 62.1817 68.6569 62.0544 68.7683 61.8794C68.8797 61.7044 68.9369 61.5166 68.9369 61.313C68.9369 61.0139 68.8288 60.7689 68.6124 60.578C68.396 60.387 68.0555 60.2916 67.5878 60.2916H65.5927V62.3758Z" fill="white"/>
<path d="M75.4663 65.895V59.5947H76.3V65.1504H79.4056V65.895H75.4663Z" fill="white"/>
<path d="M85.7726 59.5947H84.939V65.895H85.7726V59.5947Z" fill="white"/>
<path d="M91.6338 65.895V59.5947H92.4897L95.799 64.5395V59.5947H96.5976V65.895H95.7449L92.4325 60.9439V65.895H91.6338Z" fill="white"/>
<path d="M102.417 65.895V59.5947H106.974V60.3361H103.251V62.2676H106.735V63.0058H103.251V65.1504H107.12V65.895H102.417Z" fill="white"/>
<path d="M112.386 63.8713L113.172 63.8045C113.21 64.1195 113.296 64.3772 113.433 64.5809C113.567 64.7813 113.78 64.9468 114.066 65.0709C114.353 65.195 114.674 65.2586 115.034 65.2586C115.352 65.2586 115.632 65.2109 115.877 65.1154C116.122 65.02 116.3 64.8895 116.421 64.7272C116.539 64.5649 116.599 64.3836 116.599 64.1895C116.599 63.9954 116.542 63.8204 116.427 63.6708C116.313 63.5213 116.125 63.4004 115.858 63.2985C115.689 63.2317 115.317 63.1299 114.738 62.9931C114.159 62.8531 113.754 62.7226 113.522 62.6017C113.22 62.4426 112.997 62.2485 112.848 62.013C112.701 61.7807 112.628 61.5198 112.628 61.2303C112.628 60.9121 112.72 60.613 112.899 60.3393C113.08 60.0625 113.344 59.8525 113.691 59.7093C114.038 59.5661 114.423 59.4929 114.846 59.4929C115.314 59.4929 115.724 59.5693 116.084 59.7188C116.44 59.8684 116.714 60.0911 116.908 60.3807C117.099 60.6734 117.204 61.0043 117.216 61.3735L116.418 61.4339C116.373 61.0362 116.227 60.7371 115.982 60.5334C115.734 60.3298 115.368 60.2279 114.884 60.2279C114.4 60.2279 114.012 60.3202 113.783 60.5048C113.551 60.6893 113.436 60.9121 113.436 61.173C113.436 61.3989 113.519 61.5866 113.681 61.7298C113.84 61.8762 114.26 62.0258 114.938 62.1785C115.616 62.3344 116.08 62.4649 116.332 62.5826C116.698 62.7512 116.971 62.9644 117.143 63.2253C117.318 63.4831 117.407 63.7822 117.407 64.1227C117.407 64.4631 117.312 64.775 117.121 65.0709C116.927 65.3668 116.653 65.5959 116.294 65.7614C115.934 65.9268 115.53 66.0096 115.078 66.0096C114.509 66.0096 114.031 65.9268 113.646 65.7614C113.261 65.5959 112.959 65.3445 112.739 65.0104C112.52 64.6763 112.405 64.3008 112.393 63.8776" fill="white"/>
<path d="M41.2731 63.8841L0 63.2063L41.2731 62.5254V63.8841Z" fill="white"/>
<path d="M123.135 62.3281L164.408 63.0059L123.135 63.6868V62.3281Z" fill="white"/>
<path d="M61.5229 22.3532H65.2299C64.8831 21.195 64.6508 19.9858 64.5426 18.7417H56.0786C58.7769 23.556 62.8371 24.2656 62.8371 24.2656C61.9557 23.4764 61.5197 22.3564 61.5197 22.3564" fill="white"/>
<path d="M51.2228 17.122H64.3483C64.3515 15.9479 64.4692 14.8024 64.6856 13.6887H46.3926C49.2022 18.3535 52.5115 18.8658 52.5115 18.8658L52.7183 18.9485C52.5115 18.8658 51.2228 17.122 51.2228 17.122Z" fill="white"/>
<path d="M68.8224 5.26285C67.9187 5.12921 67.3205 5.16103 67.3205 5.16103H28.0107C35.0969 11.0285 38.9726 11.0285 38.9726 11.0285H65.4177C66.1878 8.89027 67.3555 6.93974 68.8224 5.26285Z" fill="white"/>
<path d="M102.885 22.3532H99.1748C99.5216 21.195 99.7539 19.9858 99.8621 18.7417H108.326C105.628 23.556 101.568 24.2656 101.568 24.2656C102.449 23.4764 102.885 22.3564 102.885 22.3564" fill="white"/>
<path d="M113.185 17.122H100.059C100.056 15.9479 99.9385 14.8024 99.7222 13.6887H118.015C115.206 18.3535 111.896 18.8658 111.896 18.8658L111.689 18.9485C111.896 18.8658 113.185 17.122 113.185 17.122Z" fill="white"/>
<path d="M95.5859 5.26285C96.4896 5.12921 97.0878 5.16103 97.0878 5.16103H136.398C129.311 11.0285 125.436 11.0285 125.436 11.0285H98.9906C98.2206 8.89027 97.0528 6.93974 95.5859 5.26285Z" fill="white"/>
<path d="M82.2055 0C72.8951 0 65.3188 7.57622 65.3188 16.8866C65.3188 26.197 72.8951 33.7732 82.2055 33.7732C91.5158 33.7732 99.0921 26.197 99.0921 16.8866C99.0921 7.57622 91.5158 0 82.2055 0ZM82.2055 32.3795C73.6651 32.3795 66.7157 25.4301 66.7157 16.8898C66.7157 8.34944 73.6651 1.39688 82.2055 1.39688C90.7458 1.39688 97.6952 8.34625 97.6952 16.8898C97.6952 25.4333 90.7458 32.3795 82.2055 32.3795Z" fill="white"/>
<path d="M82.2057 2.19556C74.0917 2.19556 67.5146 8.77265 67.5146 16.8866C67.5146 25.0006 74.0917 31.5777 82.2057 31.5777C90.3197 31.5777 96.8968 25.0006 96.8968 16.8866C96.8968 8.77265 90.3197 2.19556 82.2057 2.19556ZM80.8947 5.32341V11.8114H77.9769V8.1808C75.6763 9.2913 73.8817 11.2896 73.0385 13.7301H80.8947V30.0026C75.2436 29.4585 70.6361 25.3474 69.3538 19.9445H73.0099C73.8404 22.4264 75.6509 24.4501 77.9769 25.5733V16.8834H68.9911C68.9911 10.0359 74.2158 4.40701 80.8947 3.76426V5.32341ZM89.9792 27.5716L89.206 23.5051L89.1774 23.3555L88.7637 21.2013L88.1846 24.2847L88.1496 24.4756L87.3032 29.0894C86.075 29.6081 84.7481 29.9453 83.3639 30.0694C83.3067 30.0758 83.2526 30.0885 83.1985 30.0949V3.68471C84.1308 3.75789 85.0376 3.92654 85.9063 4.18109V24.2051L86.3613 21.9459L87.4814 14.8629H87.4846L87.6087 13.7015H90.1001L90.256 15.2861L90.8956 21.055C91.5002 19.7917 91.8438 18.379 91.8438 16.8834C91.8438 14.9202 91.252 13.0937 90.2433 11.5664V6.383C93.3934 8.80128 95.4267 12.6037 95.4267 16.8834C95.4267 21.1632 93.2853 25.166 89.9888 27.5716" fill="white"/>
<path d="M21.3732 47.0452C21.6819 47.3889 21.911 47.7675 22.0605 48.1748C22.2069 48.5821 22.2801 49.0594 22.2801 49.6035C22.2801 50.8954 21.8028 51.9645 20.8482 52.8014C19.8936 53.6414 18.7067 54.0582 17.2908 54.0582C16.6353 54.0582 15.983 53.9564 15.3307 53.7559C14.6752 53.5523 14.112 53.3073 13.6379 53.0177L13.1956 53.7719H12.3683L12.2251 48.7603H13.0588C13.2306 49.3808 13.4311 49.9376 13.6633 50.4372C13.8924 50.9367 14.1979 51.4013 14.5766 51.834C14.9329 52.2381 15.353 52.5627 15.8302 52.8045C16.3075 53.0464 16.8644 53.1673 17.4944 53.1673C17.9685 53.1673 18.3854 53.1036 18.7385 52.9795C19.0917 52.8554 19.3781 52.6804 19.6009 52.4545C19.8204 52.2286 19.9827 51.9613 20.0909 51.6559C20.1991 51.3504 20.25 50.9972 20.25 50.5963C20.25 50.0108 20.0845 49.4667 19.7568 48.9607C19.4258 48.4548 18.9326 48.0698 18.2803 47.8089C17.8317 47.6307 17.3194 47.4334 16.7435 47.217C16.1675 47.0007 15.668 46.797 15.2479 46.6061C14.4206 46.2338 13.7811 45.747 13.3229 45.1456C12.8679 44.5442 12.6356 43.7583 12.6356 42.7909C12.6356 42.2341 12.7501 41.7154 12.976 41.235C13.2051 40.7513 13.5265 40.3217 13.9465 39.9463C14.3443 39.5899 14.8152 39.3067 15.3593 39.1062C15.9034 38.9058 16.4698 38.804 17.0617 38.804C17.7362 38.804 18.3376 38.9058 18.869 39.1126C19.4036 39.3194 19.8872 39.5613 20.3295 39.8349L20.7527 39.1349H21.58L21.6596 43.9937H20.8259C20.6764 43.4369 20.5045 42.9055 20.3168 42.3932C20.1291 41.8841 19.8809 41.4259 19.5786 41.0122C19.2827 40.6113 18.9231 40.2963 18.4967 40.0576C18.0672 39.819 17.5485 39.7013 16.928 39.7013C16.2725 39.7013 15.7189 39.9113 15.2575 40.3313C14.7993 40.7513 14.567 41.2636 14.567 41.865C14.567 42.4982 14.7166 43.0232 15.0093 43.4401C15.3052 43.8569 15.7348 44.1974 16.298 44.4678C16.8007 44.7097 17.2939 44.9165 17.7776 45.0915C18.2644 45.2665 18.7322 45.4542 19.184 45.6515C19.5977 45.8297 19.9954 46.0333 20.3773 46.2593C20.7591 46.4884 21.09 46.7493 21.3732 47.0548" fill="white"/>
<path d="M30.5119 53.759H23.9221V53.0272C24.1067 53.0145 24.3771 52.9922 24.7272 52.9635C25.0772 52.9381 25.3254 52.8935 25.4686 52.8394C25.6945 52.7503 25.8599 52.6263 25.9618 52.4735C26.0636 52.3208 26.1177 52.1044 26.1177 51.8308V41.2285C26.1177 40.9867 26.0795 40.7862 26.0031 40.6239C25.9268 40.4617 25.7486 40.3248 25.4654 40.2167C25.2585 40.1339 24.9976 40.0576 24.6858 39.9844C24.374 39.9112 24.1162 39.8698 23.9189 39.8571V39.1252H30.5088V39.8571C30.2956 39.8635 30.041 39.8889 29.7451 39.9335C29.4492 39.978 29.1914 40.0353 28.9719 40.1021C28.711 40.1848 28.536 40.3185 28.4469 40.503C28.3578 40.6876 28.3132 40.8944 28.3132 41.1235V51.7162C28.3132 51.9421 28.3609 52.1458 28.4628 52.3208C28.5646 52.4958 28.7332 52.6358 28.9719 52.7376C29.1151 52.7917 29.3505 52.8522 29.6783 52.919C30.006 52.9826 30.2828 53.0208 30.5088 53.0272V53.759H30.5119Z" fill="white"/>
<path d="M44.6523 49.4475L44.3723 53.759H32.2236V53.0272C32.4305 53.0145 32.7073 52.9858 33.0509 52.9381C33.3946 52.8935 33.6173 52.8458 33.7223 52.7981C33.9419 52.6931 34.0946 52.5626 34.1805 52.3972C34.2696 52.2317 34.311 52.0217 34.311 51.7671V41.2476C34.311 41.0185 34.2728 40.8181 34.1964 40.643C34.1201 40.468 33.9642 40.3248 33.7223 40.2135C33.5378 40.1244 33.2864 40.0448 32.9746 39.978C32.6596 39.908 32.4114 39.8666 32.2268 39.8539V39.1221H43.5514V42.6509H42.7782C42.6382 42.129 42.3422 41.5722 41.884 40.9835C41.429 40.3949 40.9931 40.0735 40.5794 40.0194C40.3662 39.9939 40.1117 39.9717 39.8158 39.9589C39.5198 39.9462 39.1826 39.9367 38.8039 39.9367H36.5034V45.7533H38.1548C38.6862 45.7533 39.0712 45.7055 39.313 45.6037C39.558 45.5051 39.7712 45.3364 39.959 45.1041C40.1085 44.9037 40.239 44.6364 40.344 44.3055C40.4522 43.9714 40.5222 43.6595 40.5572 43.3604H41.3304V49.0943H40.5572C40.5285 48.7634 40.4553 48.4165 40.3344 48.0474C40.2167 47.6815 40.0894 47.4142 39.959 47.2488C39.7458 46.9815 39.5039 46.8065 39.2335 46.7237C38.963 46.641 38.6034 46.5997 38.1548 46.5997H36.5034V50.9876C36.5034 51.4267 36.5352 51.7735 36.5956 52.0281C36.6593 52.2794 36.777 52.4735 36.9584 52.604C37.1366 52.7345 37.3816 52.8204 37.6902 52.8554C38.0021 52.8935 38.4412 52.9126 39.0107 52.9126H39.908C40.2803 52.9126 40.5922 52.8999 40.8467 52.8713C41.1076 52.8426 41.3781 52.7949 41.6581 52.7217C41.9381 52.6485 42.1354 52.5531 42.25 52.4258C42.565 52.0949 42.8991 51.5953 43.2459 50.9271C43.5927 50.2557 43.8155 49.7625 43.9109 49.4475H44.6523Z" fill="white"/>
<path d="M60.4031 53.759H56.4607C55.5888 52.3908 54.7997 51.2071 54.0965 50.2112C53.3933 49.212 52.6296 48.1843 51.8023 47.1278H50.3036V51.7703C50.3036 52.0121 50.3418 52.2221 50.415 52.4035C50.4913 52.5849 50.6536 52.7249 50.9018 52.8204C51.0259 52.8681 51.2423 52.9126 51.5509 52.954C51.8596 52.9954 52.1205 53.0176 52.3337 53.0272V53.759H46.1448V53.0272C46.3102 53.0145 46.5489 52.989 46.8607 52.954C47.1726 52.919 47.3921 52.8744 47.5162 52.8204C47.723 52.7313 47.8726 52.6008 47.9649 52.429C48.0571 52.2572 48.1049 52.0344 48.1049 51.7703V41.1871C48.1049 40.9453 48.073 40.7353 47.9999 40.5476C47.933 40.363 47.7708 40.2198 47.5162 40.1244C47.3444 40.0607 47.1216 40.0066 46.8448 39.9557C46.568 39.9016 46.3357 39.873 46.1416 39.8571V39.1252H52.8969C53.5174 39.1252 54.0965 39.1889 54.6406 39.3162C55.1815 39.4434 55.6747 39.6471 56.1138 39.9303C56.5402 40.2071 56.8807 40.5667 57.1352 41.009C57.3898 41.4513 57.5171 41.989 57.5171 42.6127C57.5171 43.1759 57.4312 43.6754 57.2593 44.1082C57.0875 44.5409 56.833 44.9164 56.4957 45.2314C56.187 45.5273 55.8147 45.7851 55.382 45.9983C54.9492 46.2146 54.4719 46.3992 53.9501 46.5487C54.6724 47.5033 55.2738 48.3115 55.7511 48.9638C56.2284 49.6193 56.8139 50.4116 57.5075 51.3471C57.8098 51.7608 58.0835 52.0631 58.3285 52.2603C58.5735 52.4544 58.8153 52.6167 59.054 52.7408C59.2321 52.8299 59.4581 52.8999 59.7253 52.9476C59.9926 52.9954 60.2185 53.024 60.3967 53.0304V53.7622L60.4031 53.759ZM54.9779 42.8545C54.9779 41.9699 54.7233 41.2667 54.2142 40.748C53.7051 40.2294 52.986 39.9685 52.0568 39.9685H50.3036V46.2401H51.6559C52.6041 46.2401 53.3964 45.9378 54.0265 45.33C54.6597 44.7223 54.9747 43.8982 54.9747 42.8545" fill="white"/>
<path d="M75.2244 53.759H71.282C70.4101 52.3908 69.621 51.2071 68.9178 50.2112C68.2114 49.212 67.4509 48.1843 66.6236 47.1278H65.1249V51.7703C65.1249 52.0121 65.1631 52.2221 65.2363 52.4035C65.3126 52.5849 65.4749 52.7249 65.7231 52.8204C65.8472 52.8681 66.0636 52.9126 66.3722 52.954C66.6809 52.9954 66.9418 53.0176 67.155 53.0272V53.759H60.9661V53.0272C61.1315 53.0145 61.3702 52.989 61.682 52.954C61.9938 52.919 62.2134 52.8744 62.3375 52.8204C62.5443 52.7313 62.6939 52.6008 62.7862 52.429C62.8784 52.2572 62.9262 52.0344 62.9262 51.7703V41.1871C62.9262 40.9453 62.8943 40.7353 62.8211 40.5476C62.7511 40.363 62.5921 40.2198 62.3375 40.1244C62.1657 40.0607 61.9429 40.0066 61.6661 39.9557C61.3893 39.9016 61.157 39.873 60.9629 39.8571V39.1252H67.7182C68.3387 39.1252 68.9178 39.1889 69.4619 39.3162C70.0028 39.4434 70.496 39.6471 70.9351 39.9303C71.3615 40.2071 71.702 40.5667 71.9565 41.009C72.2111 41.4513 72.3384 41.989 72.3384 42.6127C72.3384 43.1759 72.2524 43.6754 72.0806 44.1082C71.9088 44.5409 71.6542 44.9164 71.317 45.2314C71.0083 45.5273 70.636 45.7851 70.2033 45.9983C69.7705 46.2146 69.2932 46.3992 68.7714 46.5487C69.4937 47.5033 70.0951 48.3115 70.5724 48.9638C71.0497 49.6193 71.6351 50.4116 72.3288 51.3471C72.6311 51.7608 72.9047 52.0631 73.1498 52.2603C73.3948 52.4544 73.6366 52.6167 73.8752 52.7408C74.0534 52.8299 74.2793 52.8999 74.5466 52.9476C74.8139 52.9954 75.0367 53.024 75.218 53.0304V53.7622L75.2244 53.759ZM69.7992 42.8545C69.7992 41.9699 69.5446 41.2667 69.0355 40.748C68.5264 40.2294 67.8073 39.9685 66.8781 39.9685H65.1249V46.2401H66.4772C67.4254 46.2401 68.2177 45.9378 68.8478 45.33C69.481 44.7223 69.796 43.8982 69.796 42.8545" fill="white"/>
<path d="M89.435 53.7591H83.3543V53.0272C83.8888 52.9922 84.3343 52.9222 84.6907 52.8204C85.0439 52.7154 85.2221 52.5913 85.2221 52.4386C85.2221 52.3781 85.2157 52.3017 85.1998 52.2126C85.1871 52.1236 85.1648 52.044 85.1393 51.9772L83.927 48.6966H78.7882C78.5941 49.1802 78.4381 49.5971 78.3172 49.9566C78.1963 50.313 78.0881 50.6439 77.9927 50.9462C77.9036 51.2422 77.8399 51.484 77.8081 51.6685C77.7731 51.8531 77.754 52.0058 77.754 52.1204C77.754 52.3972 77.9704 52.6072 78.4063 52.7599C78.8391 52.9095 79.3259 53.0018 79.87 53.0272V53.7591H74.3589V53.0272C74.5371 53.0145 74.7598 52.9731 75.0303 52.9095C75.2976 52.8459 75.5171 52.7568 75.6889 52.6454C75.9658 52.4608 76.179 52.2667 76.3285 52.0631C76.4781 51.8594 76.6276 51.5794 76.7708 51.2231C77.5058 49.3871 78.3172 47.322 79.205 45.0342C80.0928 42.7463 80.8819 40.7067 81.5755 38.9185H82.4029L87.2808 51.5413C87.3858 51.8085 87.5003 52.0249 87.6308 52.1936C87.7613 52.359 87.9426 52.5213 88.1749 52.6772C88.334 52.7727 88.5408 52.8554 88.7954 52.919C89.0499 52.9827 89.2631 53.0209 89.435 53.0272V53.7591ZM83.5484 47.777L81.3305 42.0972L79.1477 47.777H83.5484Z" fill="white"/>
<path d="M114.964 39.8571C114.792 39.8635 114.591 39.9048 114.365 39.9748C114.14 40.0448 113.93 40.1403 113.739 40.258C113.497 40.4076 113.303 40.5826 113.153 40.7799C113.007 40.9771 112.876 41.2508 112.768 41.6008C112.278 43.1886 111.712 45.0437 111.066 47.166C110.42 49.2884 109.72 51.5476 108.972 53.9468H108.024L104.326 42.6763L100.486 53.9468H99.5757C98.8948 51.5412 98.1884 49.0434 97.4629 46.4533C96.7343 43.8632 96.2442 42.129 95.9992 41.2508C95.9388 41.0376 95.8465 40.8467 95.7256 40.6812C95.6078 40.5158 95.4424 40.3662 95.2356 40.2294C95.0637 40.1117 94.8633 40.0226 94.631 39.9653C94.3987 39.908 94.1919 39.8698 94.0073 39.8571V39.1253H99.9735V39.8571C99.4516 39.8857 99.0062 39.9367 98.6371 40.013C98.268 40.0894 98.0834 40.2167 98.0834 40.3948C98.0834 40.4617 98.0929 40.5539 98.1152 40.6685C98.1343 40.7799 98.1534 40.8721 98.1661 40.939C98.3252 41.5435 98.6052 42.5458 99.0062 43.9395C99.4071 45.3364 100.005 47.4238 100.794 50.208L104.447 39.3289H105.456L109.141 50.4434C109.64 48.7347 110.067 47.2424 110.426 45.9633C110.786 44.6841 111.082 43.5927 111.317 42.6827C111.483 42.0431 111.584 41.604 111.629 41.3653C111.67 41.1299 111.689 40.9262 111.689 40.7608C111.689 40.5285 111.53 40.3312 111.209 40.1721C110.888 40.013 110.372 39.908 109.656 39.8539V39.1221H114.964V39.8539V39.8571Z" fill="white"/>
<path d="M127.968 49.4475L127.688 53.759H115.54V53.0272C115.746 53.0145 116.023 52.9858 116.367 52.9381C116.711 52.8935 116.933 52.8458 117.038 52.7981C117.258 52.6931 117.411 52.5626 117.496 52.3972C117.586 52.2317 117.627 52.0217 117.627 51.7671V41.2476C117.627 41.0185 117.589 40.8181 117.512 40.643C117.436 40.468 117.28 40.3248 117.038 40.2135C116.854 40.1244 116.602 40.0448 116.29 39.978C115.975 39.908 115.727 39.8666 115.543 39.8539V39.1221H126.867V42.6509H126.094C125.954 42.129 125.658 41.5722 125.2 40.9835C124.745 40.3949 124.309 40.0735 123.895 40.0194C123.682 39.9939 123.428 39.9717 123.132 39.9589C122.836 39.9462 122.498 39.9367 122.12 39.9367H119.819V45.7533H121.471C122.002 45.7533 122.387 45.7055 122.632 45.6037C122.877 45.5051 123.09 45.3364 123.275 45.1041C123.424 44.9037 123.555 44.6364 123.66 44.3055C123.768 43.9714 123.838 43.6595 123.873 43.3604H124.646V49.0943H123.873C123.844 48.7634 123.771 48.4165 123.654 48.0474C123.533 47.6815 123.405 47.4142 123.275 47.2488C123.062 46.9815 122.82 46.8065 122.549 46.7237C122.279 46.641 121.919 46.5997 121.471 46.5997H119.819V50.9876C119.819 51.4267 119.851 51.7735 119.912 52.0281C119.975 52.2794 120.093 52.4735 120.274 52.604C120.452 52.7345 120.697 52.8204 121.006 52.8554C121.318 52.8935 121.757 52.9126 122.327 52.9126H123.224C123.596 52.9126 123.908 52.8999 124.163 52.8713C124.427 52.8426 124.694 52.7949 124.974 52.7217C125.254 52.6485 125.451 52.5531 125.566 52.4258C125.881 52.0949 126.215 51.5953 126.562 50.9271C126.909 50.2557 127.131 49.7625 127.227 49.4475H127.968Z" fill="white"/>
<path d="M138.57 47.0452C138.879 47.3889 139.108 47.7675 139.258 48.1748C139.404 48.5821 139.477 49.0594 139.477 49.6035C139.477 50.8954 139 51.9645 138.045 52.8014C137.091 53.6414 135.904 54.0582 134.488 54.0582C133.833 54.0582 133.18 53.9564 132.528 53.7559C131.872 53.5523 131.309 53.3073 130.835 53.0177L130.393 53.7719H129.566L129.422 48.7603H130.256C130.428 49.3808 130.628 49.9376 130.861 50.4372C131.093 50.9367 131.395 51.4013 131.774 51.834C132.13 52.2381 132.55 52.5627 133.028 52.8045C133.505 53.0464 134.062 53.1673 134.692 53.1673C135.166 53.1673 135.583 53.1036 135.936 52.9795C136.289 52.8554 136.575 52.6804 136.798 52.4545C137.018 52.2286 137.18 51.9613 137.288 51.6559C137.396 51.3504 137.447 50.9972 137.447 50.5963C137.447 50.0108 137.282 49.4667 136.954 48.9607C136.623 48.4548 136.13 48.0698 135.478 47.8089C135.029 47.6307 134.517 47.4334 133.941 47.217C133.365 47.0007 132.865 46.797 132.445 46.6061C131.618 46.2338 130.978 45.747 130.52 45.1456C130.065 44.5442 129.833 43.7583 129.833 42.7909C129.833 42.2341 129.947 41.7154 130.173 41.235C130.402 40.7513 130.724 40.3217 131.144 39.9463C131.542 39.5899 132.012 39.3067 132.557 39.1062C133.101 38.9058 133.667 38.804 134.259 38.804C134.934 38.804 135.535 38.9058 136.066 39.1126C136.601 39.3194 137.084 39.5613 137.527 39.8349L137.95 39.1349H138.774L138.857 43.9937H138.023C137.874 43.4369 137.702 42.9055 137.514 42.3932C137.326 41.8841 137.081 41.4259 136.776 41.0122C136.48 40.6113 136.12 40.2963 135.694 40.0576C135.268 39.819 134.746 39.7013 134.125 39.7013C133.47 39.7013 132.916 39.9113 132.455 40.3313C131.997 40.7513 131.764 41.2636 131.764 41.865C131.764 42.4982 131.911 43.0232 132.207 43.4401C132.502 43.8569 132.932 44.1974 133.495 44.4678C133.998 44.7097 134.491 44.9165 134.975 45.0915C135.462 45.2665 135.929 45.4542 136.381 45.6515C136.795 45.8297 137.193 46.0333 137.575 46.2593C137.956 46.4884 138.287 46.7493 138.57 47.0548" fill="white"/>
<path d="M153.217 43.0963H152.505C152.444 42.8481 152.33 42.5554 152.171 42.2149C152.008 41.8745 151.827 41.5531 151.63 41.2508C151.42 40.9358 151.197 40.6558 150.952 40.4203C150.707 40.1848 150.471 40.048 150.245 40.013C150.032 39.9876 149.762 39.9653 149.437 39.9526C149.116 39.9398 148.814 39.9303 148.537 39.9303H147.939V51.6367C147.939 51.8626 147.986 52.0726 148.082 52.2603C148.177 52.4513 148.346 52.5944 148.588 52.6994C148.712 52.7472 148.973 52.8108 149.367 52.8935C149.765 52.9763 150.07 53.0208 150.29 53.0272V53.759H143.379V53.0272C143.573 53.0145 143.866 52.9858 144.26 52.9445C144.655 52.9031 144.928 52.8522 145.078 52.7885C145.307 52.6994 145.469 52.569 145.578 52.4003C145.686 52.2317 145.74 52.0058 145.74 51.7258V39.9271H145.142C144.928 39.9271 144.664 39.9335 144.346 39.943C144.031 39.9526 143.726 39.9748 143.436 40.0098C143.21 40.0385 142.975 40.1721 142.73 40.4171C142.485 40.6621 142.259 40.939 142.055 41.2476C141.848 41.5563 141.667 41.884 141.508 42.2308C141.349 42.5777 141.241 42.8672 141.177 43.0931H140.455V39.1221H153.214V43.0931L153.217 43.0963Z" fill="white"/>
</g>
</svg>
