<svg width="129" height="40" viewBox="0 0 129 40" fill="none" xmlns="http://www.w3.org/2000/svg">
<g clip-path="url(#clip0_49_136)">
<path d="M39.6855 26.457H44.0671C43.6478 25.0943 43.3753 23.6478 43.2495 22.1803H33.2285C36.4361 27.8826 41.2369 28.7212 41.2369 28.7212C40.1887 27.7778 39.6855 26.457 39.6855 26.457Z" fill="#12100B"/>
<path d="M27.4843 20.2725H43.0188C43.0188 18.8889 43.1656 17.5262 43.4172 16.2054H21.761C25.0943 21.74 29.0147 22.327 29.0147 22.327L29.2662 22.4319C29.0147 22.327 27.5052 20.2725 27.5052 20.2725" fill="#12100B"/>
<path d="M48.3228 6.22643C47.2537 6.07968 46.5409 6.10064 46.5409 6.10064H0C8.38574 13.0608 12.9769 13.0608 12.9769 13.0608H44.2977C45.2201 10.5241 46.5828 8.21804 48.3228 6.22643Z" fill="#12100B"/>
<path d="M88.6584 26.457H84.2559C84.6751 25.0943 84.9477 23.6478 85.0735 22.1803H95.0944C91.8869 27.8826 87.0861 28.7212 87.0861 28.7212C88.1343 27.7778 88.6374 26.457 88.6374 26.457" fill="#12100B"/>
<path d="M100.859 20.2725H85.3248C85.3248 18.8889 85.1781 17.5262 84.9265 16.2054H106.583C103.249 21.74 99.329 22.327 99.329 22.327L99.0775 22.4319C99.329 22.327 100.859 20.2725 100.859 20.2725Z" fill="#12100B"/>
<path d="M80.021 6.22643C81.0902 6.07968 81.803 6.10064 81.803 6.10064H128.365C119.979 13.0608 115.388 13.0608 115.388 13.0608H84.0671C83.1447 10.5241 81.782 8.21804 80.042 6.22643" fill="#12100B"/>
<path d="M64.1719 0C53.1446 0 44.1719 8.97275 44.1719 20C44.1719 31.0273 53.1446 40 64.1719 40C75.1991 40 84.1719 31.0273 84.1719 20C84.1719 8.97275 75.1991 0 64.1719 0ZM64.1719 38.3438C54.0461 38.3438 45.8281 30.1258 45.8281 20C45.8281 9.87421 54.0671 1.65618 64.1719 1.65618C74.2767 1.65618 82.5157 9.89518 82.5157 20C82.5157 30.1048 74.2767 38.3438 64.1719 38.3438Z" fill="#12100B"/>
<path d="M81.5723 20C81.5723 29.6017 73.7736 37.4004 64.1719 37.4004C54.5702 37.4004 46.7715 29.6017 46.7715 20C46.7715 10.3984 54.5702 2.59961 64.1719 2.59961C73.7736 2.59961 81.5723 10.3984 81.5723 20Z" fill="#CC1517"/>
<path d="M48.5325 20H59.1824V30.2935C56.4151 28.9727 54.2767 26.5618 53.2914 23.6268H48.9518C50.4822 30.0209 55.9329 34.8847 62.6205 35.5346V16.2474H53.3123C54.3186 13.3543 56.436 10.9853 59.1614 9.68552V13.9832H62.6205V4.46539C54.717 5.22011 48.5325 11.8868 48.5325 20Z" fill="white"/>
<path d="M73.6897 7.54718V13.6897C74.8847 15.4927 75.5765 17.652 75.5765 20C75.5765 21.761 75.1782 23.4382 74.4444 24.9476L73.6897 18.1132L73.5011 16.2264H70.5451L70.3983 17.6101L69.0776 25.9958L68.5325 28.6793V9.01468V5.19917V4.9476C67.5052 4.6541 66.4361 4.44445 65.325 4.3606V35.6185C65.325 35.6185 65.4507 35.6185 65.5136 35.6185C67.1489 35.4717 68.7212 35.0734 70.1887 34.4654L71.195 28.9937L71.2369 28.7631L71.9287 25.1153L72.4109 27.673L72.4528 27.8616L73.3753 32.6834C77.2746 29.8323 79.8113 25.2411 79.8113 20.021C79.8113 14.8008 77.4004 10.4403 73.6688 7.58911" fill="white"/>
</g>
<defs>
<clipPath id="clip0_49_136">
<rect width="128.344" height="40" fill="white"/>
</clipPath>
</defs>
</svg>
