<svg width="44" height="36" viewBox="0 0 44 36" fill="none" xmlns="http://www.w3.org/2000/svg">
<path d="M15.9817 0C9.30837 0 3.92144 5.38 3.92144 12V12.7C0.846061 14.2 -0.842381 17.84 0.423951 21.32L1.04707 23.04C1.60988 24.58 1.89129 26.2 1.89129 27.82V33C1.89129 34.66 3.23802 36 4.90636 36H39.0772C40.7456 36 42.0923 34.66 42.0923 33V27.82C42.0923 26.18 42.3737 24.56 42.9365 23.04L43.5596 21.32C44.826 17.84 43.1375 14.2 40.0822 12.7V12C40.0822 5.38 34.6752 0 28.0219 0H15.9616L15.9817 0ZM36.0822 12.06C32.6853 12.52 30.0521 15.42 30.0521 18.94V22H13.9717V18.94C13.9717 15.42 11.3385 12.52 7.94154 12.06V12C7.94154 7.58 11.5395 4 15.9817 4H28.042C32.4843 4 36.0822 7.58 36.0822 12V12.06ZM30.0521 26V28H34.0722V18.94C34.0722 17.32 35.3988 16 37.027 16C39.0772 16 40.5044 18.02 39.8008 19.94L39.1777 21.66C38.4541 23.64 38.0923 25.72 38.0923 27.82V32H5.93149V27.82C5.93149 25.72 5.56968 23.64 4.84606 21.66L4.22295 19.94C3.51943 18.02 4.94656 16 6.99682 16C8.62496 16 9.95159 17.32 9.95159 18.94V28H13.9717V26H30.0521Z" fill="#A5A5A5"/>
</svg>
