<svg width="43" height="35" viewBox="0 0 43 35" fill="none" xmlns="http://www.w3.org/2000/svg">
<path d="M0 7.60389C5.874 2.85146 13.3638 0 21.5 0C29.6362 0 37.126 2.85146 43 7.60389L40.6048 10.5694C35.3771 6.34925 28.7237 3.82095 21.5 3.82095C14.2763 3.82095 7.60389 6.33024 2.39523 10.5504L0 7.58488V7.60389ZM5.96905 14.9987C10.2082 11.5579 15.607 9.50486 21.5 9.50486C27.393 9.50486 32.7918 11.5579 37.0309 14.9987L34.6357 17.9642C31.0429 15.0557 26.4805 13.3258 21.5 13.3258C16.5195 13.3258 11.9571 15.0557 8.36428 17.9642L5.96905 14.9987ZM11.9381 22.3935C14.5424 20.2834 17.8691 19.0097 21.5 19.0097C25.1309 19.0097 28.4385 20.2834 31.0619 22.3935L28.6667 25.359C26.7087 23.7812 24.2184 22.8307 21.5 22.8307C18.7816 22.8307 16.2913 23.7812 14.3333 25.359L11.9381 22.3935ZM17.9262 29.7882C18.9147 28.9898 20.1503 28.5146 21.519 28.5146C22.8877 28.5146 24.1233 28.9898 25.1118 29.7882L21.519 34.2175L17.9262 29.7882Z" fill="#A5A5A5"/>
</svg>
