<?xml version="1.0" encoding="UTF-8"?>
<svg xmlns="http://www.w3.org/2000/svg" width="37" height="37" viewBox="0 0 37 37" fill="none">
  <path d="M10.8293 1.80488C10.8293 0.812195 10.0171 0 9.02439 0C8.03171 0 7.21951 0.812195 7.21951 1.80488V3.60976C7.21951 3.60976 7.21951 3.6278 7.21951 3.64585C7.21951 3.71805 7.21951 3.75415 6.84049 4.13317L6.80439 4.16927C6.31707 4.65659 5.41463 5.55902 5.41463 7.21951V9.02439C5.41463 10.0171 6.22683 10.8293 7.21951 10.8293C8.2122 10.8293 9.02439 10.0171 9.02439 9.02439V7.21951C9.02439 7.21951 9.02439 7.20146 9.02439 7.18341C9.02439 7.11122 9.02439 7.07512 9.40342 6.6961L9.43951 6.66C9.92683 6.17268 10.8293 5.27024 10.8293 3.60976V1.80488ZM30.6829 1.80488C30.6829 0.812195 29.8707 0 28.8781 0C27.8854 0 27.0732 0.812195 27.0732 1.80488V3.60976C27.0732 3.60976 27.0732 3.6278 27.0732 3.64585C27.0732 3.71805 27.0732 3.75415 26.6941 4.13317L26.6581 4.16927C26.1707 4.65659 25.2683 5.55902 25.2683 7.21951V9.02439C25.2683 10.0171 26.0805 10.8293 27.0732 10.8293C28.0659 10.8293 28.8781 10.0171 28.8781 9.02439V7.21951C28.8781 7.21951 28.8781 7.20146 28.8781 7.18341C28.8781 7.11122 28.878 7.07512 29.2571 6.6961L29.2932 6.66C29.7805 6.17268 30.6829 5.27024 30.6829 3.60976V1.80488ZM18.9512 0C19.9439 0 20.7561 0.812195 20.7561 1.80488V3.60976C20.7561 5.27024 19.8356 6.17268 19.3663 6.66L19.3302 6.6961C18.9512 7.07512 18.9512 7.11122 18.9512 7.18341C18.9512 7.18341 18.9512 7.20146 18.9512 7.21951V9.02439C18.9512 10.0171 18.139 10.8293 17.1463 10.8293C16.1537 10.8293 15.3415 10.0171 15.3415 9.02439V7.21951C15.3415 5.55902 16.262 4.65659 16.7312 4.16927L16.7673 4.13317C17.1463 3.75415 17.1463 3.71805 17.1463 3.64585C17.1463 3.64585 17.1463 3.6278 17.1463 3.60976V1.80488C17.1463 0.812195 17.9585 0 18.9512 0ZM3.60976 17.1463H32.4878C32.4878 25.1239 26.0263 31.5854 18.0488 31.5854C10.0712 31.5854 3.60976 25.1239 3.60976 17.1463ZM1.80488 13.5366C0.812195 13.5366 0 14.3488 0 15.3415V17.1463C0 24.5463 4.45805 30.8995 10.8293 33.6971V35.1951C10.8293 36.1878 11.6415 37 12.6341 37H23.4634C24.4561 37 25.2683 36.1878 25.2683 35.1951V33.6971C31.6395 30.9176 36.0976 24.5463 36.0976 17.1463V15.3415C36.0976 14.3488 35.2854 13.5366 34.2927 13.5366H1.80488Z" fill="#A5A5A5"></path>
</svg>
