<?xml version="1.0" encoding="UTF-8"?>
<svg xmlns="http://www.w3.org/2000/svg" width="36" height="36" viewBox="0 0 36 36" fill="none">
  <path d="M18 36C8.064 36 0 27.936 0 18C0 8.064 8.064 0 18 0C27.936 0 36 8.064 36 18C36 27.936 27.936 36 18 36ZM18 32.4C25.956 32.4 32.4 25.956 32.4 18C32.4 10.044 25.956 3.6 18 3.6C10.044 3.6 3.6 10.044 3.6 18C3.6 25.956 10.044 32.4 18 32.4ZM16.2 19.422C14.616 18.72 13.5 17.136 13.5 15.3C13.5 12.816 15.516 10.8 18 10.8C20.484 10.8 22.5 12.816 22.5 15.3C22.5 17.154 21.384 18.738 19.8 19.422V25.2H16.2V19.422Z" fill="#A5A5A5"></path>
</svg>
