<?xml version="1.0" encoding="UTF-8"?>
<svg xmlns="http://www.w3.org/2000/svg" width="166" height="66" viewBox="0 0 166 66" fill="none">
  <path d="M47.2275 65.8932L49.6626 59.5917H50.567L53.1634 65.8932H52.2052L51.4652 63.9854H48.8151L48.1193 65.8932H47.2307H47.2275ZM49.0554 63.3066H51.2058L50.5449 61.5623C50.3425 61.0312 50.1907 60.5943 50.0958 60.2549C50.0136 60.6572 49.9029 61.0595 49.7543 61.4586L49.0586 63.3066H49.0554Z" fill="#12100B"></path>
  <path d="M59.2379 59.5948H58.3999V65.8931H59.2379V59.5948Z" fill="#12100B"></path>
  <path d="M65.1611 65.8931V59.5948H67.9725C68.5386 59.5948 68.9655 59.6514 69.2596 59.7646C69.5537 59.8777 69.7877 60.0757 69.9648 60.3617C70.1419 60.6508 70.2305 60.9651 70.2305 61.314C70.2305 61.7603 70.085 62.1374 69.7941 62.4423C69.5031 62.7503 69.0541 62.9451 68.4469 63.0268C68.6682 63.1337 68.839 63.2374 68.9529 63.3411C69.1995 63.5643 69.4304 63.844 69.6486 64.1803L70.7523 65.8931H69.696L68.858 64.5826C68.6113 64.2054 68.4121 63.9163 68.254 63.7151C68.0958 63.514 67.9535 63.3757 67.827 63.294C67.7005 63.2123 67.574 63.1589 67.4444 63.1274C67.3495 63.1054 67.1946 63.0991 66.9763 63.0991H66.0023V65.8963H65.1643L65.1611 65.8931ZM65.9992 62.3731H67.8017C68.1844 62.3731 68.4848 62.3354 68.6999 62.2537C68.9181 62.1751 69.0825 62.0494 69.1932 61.8766C69.307 61.7037 69.364 61.5151 69.364 61.3109C69.364 61.0123 69.2533 60.7671 69.0382 60.5754C68.82 60.3837 68.4785 60.2863 68.0073 60.2863H65.9992V62.37V62.3731Z" fill="#12100B"></path>
  <path d="M75.9355 65.8931V59.5948H76.7736V65.1483H79.8949V65.8931H75.9355Z" fill="#12100B"></path>
  <path d="M86.3019 59.5948H85.4639V65.8931H86.3019V59.5948Z" fill="#12100B"></path>
  <path d="M92.2031 65.8931V59.5948H93.0633L96.3933 64.5386V59.5948H97.1966V65.8931H96.3364L93.0064 60.9431V65.8931H92.2031Z" fill="#12100B"></path>
  <path d="M103.053 65.8931V59.5948H107.636V60.3366H103.891V62.2663H107.398V63.0049H103.891V65.1483H107.781V65.8931H103.053Z" fill="#12100B"></path>
  <path d="M113.084 63.8691L113.875 63.8C113.913 64.1143 114.002 64.3751 114.138 64.5763C114.274 64.7774 114.489 64.9408 114.773 65.0665C115.061 65.1923 115.387 65.2551 115.747 65.2551C116.067 65.2551 116.348 65.208 116.595 65.1137C116.841 65.0194 117.022 64.8905 117.142 64.724C117.262 64.5605 117.322 64.3814 117.322 64.1865C117.322 63.9917 117.265 63.8157 117.148 63.668C117.031 63.5203 116.841 63.3945 116.576 63.2971C116.405 63.2311 116.032 63.1274 115.447 62.9891C114.865 62.8508 114.457 62.7188 114.223 62.5963C113.919 62.4391 113.695 62.2411 113.546 62.0085C113.398 61.776 113.325 61.5151 113.325 61.226C113.325 60.9085 113.417 60.61 113.597 60.3334C113.777 60.0568 114.046 59.8463 114.394 59.7048C114.745 59.5603 115.131 59.488 115.557 59.488C116.026 59.488 116.443 59.5634 116.803 59.7143C117.161 59.862 117.436 60.0851 117.632 60.3774C117.825 60.6697 117.929 61.0028 117.942 61.3705L117.139 61.4303C117.094 61.0343 116.949 60.7325 116.699 60.5283C116.449 60.324 116.082 60.2234 115.595 60.2234C115.108 60.2234 114.719 60.3177 114.485 60.5C114.251 60.6854 114.134 60.9085 114.134 61.1694C114.134 61.3957 114.217 61.5811 114.381 61.7257C114.542 61.8734 114.963 62.0211 115.646 62.1751C116.329 62.3291 116.797 62.4611 117.05 62.5774C117.42 62.7471 117.692 62.9608 117.866 63.2185C118.043 63.4763 118.132 63.7748 118.132 64.1143C118.132 64.4537 118.034 64.7648 117.841 65.0603C117.648 65.3557 117.37 65.5851 117.009 65.7517C116.649 65.9151 116.241 66 115.788 66C115.216 66 114.735 65.9183 114.346 65.7517C113.957 65.5851 113.654 65.3368 113.432 65.0006C113.211 64.6674 113.094 64.2903 113.084 63.8691Z" fill="#12100B"></path>
  <path d="M41.5287 63.8849L0 63.206L41.5287 62.5272V63.8849Z" fill="#12100B"></path>
  <path d="M123.9 62.326L165.429 63.0048L123.9 63.6837V62.326Z" fill="#12100B"></path>
  <path d="M61.9043 22.352H65.6359C65.2849 21.1923 65.0541 19.9823 64.9465 18.7408H56.4302C59.1467 23.5557 63.2325 24.2628 63.2325 24.2628C62.347 23.474 61.9075 22.352 61.9075 22.352" fill="#12100B"></path>
  <path d="M51.541 17.1191H64.7472C64.7504 15.9468 64.8706 14.7997 65.0856 13.6871H46.6772C49.5044 18.3511 52.8344 18.8634 52.8344 18.8634L53.0432 18.9451C52.8344 18.8634 51.5379 17.1191 51.5379 17.1191" fill="#12100B"></path>
  <path d="M69.2474 5.2643C68.3398 5.1323 67.7358 5.16373 67.7358 5.16373H28.1836C35.3117 11.0314 39.2141 11.0314 39.2141 11.0314H65.8225C66.5973 8.8943 67.7706 6.94259 69.2474 5.2643Z" fill="#12100B"></path>
  <path d="M103.525 22.352H99.793C100.144 21.1923 100.375 19.9823 100.482 18.7408H108.999C106.282 23.5557 102.196 24.2628 102.196 24.2628C103.082 23.474 103.521 22.352 103.521 22.352" fill="#12100B"></path>
  <path d="M113.888 17.1191H100.682C100.678 15.9468 100.558 14.7997 100.343 13.6871H118.752C115.924 18.3511 112.594 18.8634 112.594 18.8634L112.386 18.9451C112.594 18.8634 113.891 17.1191 113.891 17.1191" fill="#12100B"></path>
  <path d="M96.1782 5.2643C97.0858 5.1323 97.6899 5.16373 97.6899 5.16373H137.242C130.114 11.0314 126.212 11.0314 126.212 11.0314H99.6031C98.8283 8.8943 97.6551 6.94259 96.1782 5.2643Z" fill="#12100B"></path>
  <path d="M82.7128 0C73.3426 0 65.7212 7.57429 65.7212 16.8866C65.7212 26.1989 73.3426 33.7731 82.7128 33.7731C92.083 33.7731 99.7044 26.1957 99.7044 16.8866C99.7044 7.57743 92.083 0 82.7128 0ZM82.7128 32.3777C74.1174 32.3777 67.1253 25.4289 67.1253 16.8866C67.1253 8.34429 74.1174 1.39543 82.7128 1.39543C91.3082 1.39543 98.3003 8.34429 98.3003 16.8866C98.3003 25.4289 91.3082 32.3777 82.7128 32.3777Z" fill="#12100B"></path>
  <path d="M97.4967 16.8866C97.4967 25.0014 90.8778 31.5794 82.7125 31.5794C74.5471 31.5794 67.9282 25.0014 67.9282 16.8866C67.9282 8.77173 74.5471 2.19373 82.7125 2.19373C90.8778 2.19373 97.4967 8.77173 97.4967 16.8866Z" fill="#CC1517"></path>
  <path d="M69.418 16.8834H78.4593V25.5766C76.1159 24.4514 74.2944 22.4274 73.4627 19.9477H69.7816C71.0751 25.3471 75.708 29.458 81.394 30.0017V13.728H73.4911C74.3387 11.2891 76.1412 9.29028 78.4593 8.17771V11.8077H81.394V3.76514C74.6739 4.40628 69.418 10.0351 69.418 16.8834Z" fill="white"></path>
  <path d="M90.7925 6.38316V11.5657C91.8076 13.0932 92.4022 14.9192 92.4022 16.8834C92.4022 18.3794 92.0606 19.7906 91.4503 21.054L90.8052 15.2837L90.6502 13.6966H88.1424L88.0191 14.8594L86.8901 21.9403L86.4316 24.2V4.18316C85.5556 3.92858 84.6448 3.75573 83.7056 3.68658V30.0929C83.7625 30.0866 83.8163 30.0772 83.8732 30.0709C85.2678 29.9483 86.5992 29.6089 87.8388 29.0903L88.6927 24.4766L88.7275 24.288L89.3125 21.2017L89.7268 23.3546L89.7552 23.5086L90.5332 27.5723C93.8506 25.168 96.0041 21.2803 96.0041 16.8866C96.0041 12.4929 93.9612 8.8063 90.7893 6.3863" fill="white"></path>
  <path d="M21.5078 47.0454C21.8177 47.388 22.0485 47.7652 22.1972 48.1737C22.3458 48.5823 22.4185 49.06 22.4185 49.6006C22.4185 50.8923 21.9378 51.9609 20.9765 52.8C20.0151 53.6392 18.8197 54.0572 17.3966 54.0572C16.7388 54.0572 16.0811 53.9566 15.4264 53.7523C14.7687 53.548 14.2026 53.3029 13.7219 53.0137L13.276 53.7649H12.4443L12.2988 48.752H13.14C13.314 49.3712 13.5164 49.9306 13.7472 50.4272C13.9781 50.9269 14.2848 51.392 14.6643 51.8257C15.0248 52.2312 15.4454 52.5549 15.9261 52.7969C16.4068 53.0357 16.9665 53.1583 17.6022 53.1583C18.0797 53.1583 18.4971 53.0954 18.8545 52.9697C19.2118 52.8472 19.4996 52.6712 19.721 52.4449C19.9424 52.2186 20.1068 51.9514 20.2143 51.6434C20.3218 51.3354 20.3756 50.9834 20.3756 50.5843C20.3756 49.9997 20.2112 49.456 19.8791 48.9469C19.5471 48.4409 19.0506 48.0574 18.3959 47.7966C17.9469 47.6206 17.4314 47.4226 16.8495 47.2057C16.2676 46.9889 15.768 46.7877 15.3442 46.596C14.5125 46.2252 13.8674 45.738 13.4088 45.1377C12.9503 44.5374 12.7194 43.7517 12.7194 42.7806C12.7194 42.2243 12.8333 41.7057 13.061 41.2249C13.2918 40.744 13.6144 40.3134 14.0382 39.9363C14.4398 39.578 14.9141 39.2983 15.4581 39.0972C16.0052 38.896 16.5744 38.7923 17.1721 38.7923C17.8488 38.7923 18.456 38.8929 18.9905 39.1003C19.5281 39.3046 20.0151 39.5466 20.4578 39.82L20.8848 39.1192H21.7165L21.7987 43.978H20.9575C20.8057 43.4186 20.6349 42.8874 20.4452 42.3783C20.2554 41.8692 20.0088 41.4103 19.7052 40.9986C19.4079 40.5994 19.0442 40.282 18.6173 40.0432C18.1872 39.8043 17.6623 39.688 17.0393 39.688C16.3815 39.688 15.8217 39.8954 15.3569 40.3166C14.8952 40.7346 14.6611 41.2469 14.6611 41.8503C14.6611 42.482 14.8098 43.0069 15.107 43.4249C15.4043 43.8429 15.8376 44.1823 16.4036 44.4526C16.9096 44.6914 17.4061 44.902 17.8931 45.078C18.3833 45.254 18.8545 45.4426 19.3099 45.6406C19.7273 45.8197 20.1258 46.024 20.5116 46.2503C20.8942 46.4797 21.2295 46.7406 21.5109 47.0454" fill="#CC1517"></path>
  <path d="M30.7004 53.7586H24.0688V53.0263C24.2554 53.0137 24.5274 52.9917 24.8784 52.9634C25.2326 52.9383 25.4793 52.8943 25.6247 52.8409C25.8524 52.7529 26.0169 52.6271 26.1212 52.4731C26.2256 52.3191 26.2794 52.1054 26.2794 51.8289V41.2249C26.2794 40.986 26.2414 40.7817 26.1655 40.6214C26.0896 40.4611 25.9094 40.3229 25.6247 40.2129C25.416 40.1311 25.1567 40.0526 24.8405 39.9803C24.5274 39.908 24.2681 39.8671 24.0688 39.8514V39.1191H30.7004V39.8514C30.4854 39.8577 30.2292 39.8829 29.9319 39.93C29.6347 39.974 29.3754 40.0306 29.154 40.0997C28.8915 40.1814 28.7144 40.3166 28.6259 40.502C28.5373 40.6874 28.4931 40.8917 28.4931 41.1211V51.7126C28.4931 51.9389 28.5436 52.14 28.6417 52.316C28.7397 52.492 28.9137 52.6303 29.154 52.734C29.2995 52.7874 29.5366 52.8503 29.8655 52.9131C30.1944 52.9791 30.4727 53.0137 30.7004 53.0231V53.7554V53.7586Z" fill="#CC1517"></path>
  <path d="M44.9282 49.4466L44.6468 53.7555H32.4209V53.0232C32.6296 53.0106 32.9047 52.9823 33.2526 52.9352C33.5973 52.8912 33.8218 52.844 33.9262 52.7969C34.1476 52.6932 34.2994 52.5612 34.3879 52.3946C34.4765 52.228 34.5176 52.0206 34.5176 51.766V41.2469C34.5176 41.0206 34.4796 40.8195 34.4037 40.6435C34.3278 40.4675 34.1697 40.326 33.9262 40.216C33.7396 40.128 33.4898 40.0463 33.1736 39.9803C32.8573 39.9112 32.6075 39.8703 32.4209 39.8546V39.1223H43.8182V42.6486H43.0403C42.9011 42.1269 42.6038 41.5706 42.1421 40.9829C41.6836 40.3952 41.244 40.0746 40.8297 40.018C40.6147 39.9929 40.3585 39.9709 40.0613 39.9552C39.764 39.9426 39.4256 39.9332 39.0461 39.9332H36.7313V45.7506H38.3915C38.926 45.7506 39.3118 45.7003 39.5584 45.6029C39.8051 45.5023 40.0202 45.3357 40.2067 45.1032C40.3585 44.902 40.4882 44.638 40.5957 44.3017C40.7032 43.9686 40.7728 43.6543 40.8108 43.3589H41.5887V49.0946H40.8108C40.7823 48.7646 40.7096 48.4157 40.5862 48.048C40.4661 47.6803 40.3396 47.4163 40.2099 47.2497C39.9949 46.9826 39.7514 46.8066 39.4794 46.7249C39.2043 46.6432 38.8437 46.5992 38.3947 46.5992H36.7344V50.9866C36.7344 51.4266 36.766 51.7723 36.8293 52.0269C36.8925 52.2783 37.0127 52.4732 37.193 52.602C37.3732 52.734 37.6199 52.8189 37.9298 52.8535C38.2429 52.8912 38.6856 52.91 39.258 52.91H40.1593C40.5325 52.91 40.8487 52.8975 41.1049 52.8692C41.3673 52.8409 41.6393 52.7906 41.9208 52.7215C42.2022 52.6492 42.4014 52.5517 42.5185 52.426C42.8347 52.096 43.1731 51.5963 43.5209 50.9269C43.8688 50.2575 44.0933 49.7609 44.1914 49.4466H44.9377H44.9282Z" fill="#CC1517"></path>
  <path d="M60.7783 53.7586H56.8126C55.9366 52.3914 55.1397 51.2066 54.4345 50.2103C53.7261 49.2109 52.9577 48.1831 52.1259 47.1271H50.6175V51.7691C50.6175 52.008 50.6554 52.2186 50.7313 52.4009C50.8104 52.5831 50.9717 52.7214 51.2215 52.8189C51.3448 52.8691 51.563 52.9131 51.8761 52.954C52.186 52.9949 52.4485 53.02 52.6667 53.0263V53.7586H46.4399V53.0263C46.6044 53.0137 46.8479 52.9886 47.161 52.954C47.474 52.9194 47.6954 52.8723 47.8187 52.8189C48.0275 52.7309 48.1761 52.5989 48.271 52.4291C48.3658 52.2563 48.4101 52.0363 48.4101 51.7691V41.1871C48.4101 40.9483 48.3753 40.7346 48.3058 40.5491C48.2393 40.3637 48.0749 40.2223 47.8187 40.1249C47.6448 40.062 47.4203 40.0054 47.1452 39.9551C46.8669 39.9017 46.6328 39.8703 46.4399 39.8577V39.1254H53.2391C53.8621 39.1254 54.4471 39.1914 54.9942 39.3171C55.5382 39.446 56.0347 39.6503 56.4774 39.93C56.9075 40.2066 57.249 40.5649 57.5052 41.008C57.7613 41.4511 57.8878 41.9854 57.8878 42.614C57.8878 43.1766 57.8025 43.6763 57.6285 44.11C57.4546 44.5437 57.1984 44.9177 56.8601 45.2351C56.5501 45.5306 56.1738 45.7883 55.7406 46.002C55.3042 46.2189 54.8235 46.4011 54.2985 46.552C55.0259 47.5074 55.6299 48.312 56.1106 48.9657C56.5913 49.6194 57.1795 50.4114 57.8784 51.348C58.1851 51.7629 58.4602 52.0646 58.7037 52.2626C58.9504 52.4574 59.1939 52.6177 59.4343 52.7403C59.6145 52.8283 59.839 52.8974 60.1079 52.9477C60.3767 52.9949 60.6044 53.0231 60.7846 53.0294V53.7617L60.7783 53.7586ZM55.3168 42.8529C55.3168 41.9666 55.0607 41.2657 54.5483 40.7471C54.036 40.2286 53.3118 39.9677 52.3789 39.9677H50.6143V46.2377H51.9741C52.9292 46.2377 53.7261 45.9329 54.3618 45.3263C54.9974 44.7166 55.3168 43.8931 55.3168 42.8497" fill="#CC1517"></path>
  <path d="M75.6889 53.7586H71.7233C70.8473 52.3914 70.0504 51.2066 69.3451 50.2103C68.6368 49.2109 67.8683 48.1831 67.0366 47.1271H65.5281V51.7691C65.5281 52.008 65.5661 52.2186 65.642 52.4009C65.7179 52.5831 65.8823 52.7214 66.1321 52.8189C66.2555 52.8691 66.4737 52.9131 66.7868 52.954C67.0967 52.9949 67.3592 53.02 67.5774 53.0263V53.7586H61.3506V53.0263C61.515 53.0137 61.7585 52.9886 62.0716 52.954C62.3847 52.9194 62.6061 52.8723 62.7294 52.8189C62.9381 52.7309 63.0867 52.5989 63.1816 52.4291C63.2765 52.2563 63.3208 52.0363 63.3208 51.7691V41.1871C63.3208 40.9483 63.286 40.7346 63.2164 40.5491C63.1468 40.3637 62.9855 40.2223 62.7294 40.1249C62.5555 40.062 62.3309 40.0054 62.0558 39.9551C61.7775 39.9017 61.5435 39.8703 61.3506 39.8577V39.1254H68.1498C68.7727 39.1254 69.3578 39.1914 69.9049 39.3171C70.4488 39.446 70.9453 39.6503 71.3881 39.93C71.8181 40.2066 72.1597 40.5649 72.4158 41.008C72.672 41.4511 72.7985 41.9854 72.7985 42.614C72.7985 43.1766 72.7131 43.6763 72.5392 44.11C72.3652 44.5437 72.1091 44.9177 71.7707 45.2351C71.4608 45.5306 71.0845 45.7883 70.6512 46.002C70.2148 46.2189 69.7341 46.4011 69.2092 46.552C69.9365 47.5074 70.5405 48.312 71.0212 48.9657C71.5019 49.6194 72.0901 50.4114 72.789 51.348C73.0958 51.7629 73.3709 52.0646 73.6144 52.2626C73.8611 52.4574 74.1046 52.6177 74.3449 52.7403C74.5252 52.8283 74.7497 52.8974 75.0185 52.9477C75.2873 52.9949 75.5118 53.0231 75.6953 53.0294V53.7617L75.6889 53.7586ZM70.2306 42.8529C70.2306 41.9666 69.9745 41.2657 69.4622 40.7471C68.9498 40.2286 68.2257 39.9677 67.2927 39.9677H65.5281V46.2377H66.888C67.843 46.2377 68.6399 45.9329 69.2756 45.3263C69.9112 44.7166 70.2306 43.8931 70.2306 42.8497" fill="#CC1517"></path>
  <path d="M89.9894 53.7585H83.8701V53.0263C84.4077 52.9917 84.8568 52.9225 85.2141 52.8188C85.5715 52.7151 85.7486 52.5894 85.7486 52.4354C85.7486 52.3725 85.7423 52.2971 85.7264 52.2091C85.7106 52.1211 85.6917 52.0394 85.6632 51.9734L84.4425 48.6923H79.272C79.0791 49.1731 78.9209 49.5943 78.7976 49.9525C78.6743 50.3077 78.5668 50.6377 78.4719 50.9425C78.3833 51.238 78.3169 51.48 78.2853 51.6654C78.2505 51.8508 78.2315 52.0017 78.2315 52.118C78.2315 52.3945 78.4497 52.6051 78.8862 52.7591C79.3226 52.91 79.8127 52.998 80.3598 53.0263V53.7585H74.813V53.0263C74.9932 53.0137 75.2178 52.9728 75.4866 52.9068C75.7554 52.8408 75.9768 52.7528 76.1507 52.6428C76.429 52.4574 76.644 52.2625 76.7958 52.0614C76.9476 51.8571 77.0962 51.5774 77.2417 51.2223C77.9817 49.3868 78.7976 47.322 79.6894 45.034C80.5812 42.746 81.3781 40.7063 82.077 38.918H82.9087L87.8168 51.5428C87.9212 51.81 88.0382 52.0268 88.171 52.1934C88.3006 52.3568 88.4841 52.5203 88.7212 52.6774C88.8794 52.7748 89.0881 52.8534 89.3442 52.9194C89.6004 52.9854 89.8123 53.02 89.9862 53.0294V53.7617L89.9894 53.7585ZM84.0662 47.7777L81.8335 42.0985L79.6357 47.7777H84.063H84.0662Z" fill="#CC1517"></path>
  <path d="M115.677 39.8546C115.504 39.8609 115.304 39.9017 115.077 39.974C114.849 40.0463 114.637 40.1406 114.444 40.2569C114.201 40.4077 114.005 40.5806 113.856 40.7786C113.707 40.9766 113.578 41.25 113.467 41.5989C112.974 43.186 112.404 45.0403 111.756 47.1649C111.105 49.2863 110.403 51.546 109.65 53.944H108.695L104.976 42.6737L101.111 53.944H100.194C99.5081 51.5366 98.7997 49.0411 98.066 46.4514C97.3324 43.8617 96.8422 42.1269 96.5924 41.2469C96.5291 41.0331 96.4374 40.8446 96.3172 40.678C96.1971 40.5146 96.0326 40.3637 95.8239 40.2254C95.65 40.1091 95.4476 40.0211 95.2167 39.9614C94.9827 39.9049 94.774 39.8671 94.5874 39.8514V39.1191H100.59V39.8514C100.065 39.8797 99.6156 39.93 99.2456 40.0054C98.8756 40.0809 98.689 40.2097 98.689 40.3889C98.689 40.458 98.6985 40.5491 98.7207 40.6623C98.7396 40.7754 98.7586 40.8666 98.7713 40.9357C98.9294 41.5423 99.214 42.5417 99.6156 43.9371C100.02 45.3326 100.621 47.4226 101.415 50.2071L105.09 39.3266H106.105L109.814 50.4397C110.317 48.73 110.744 47.2371 111.108 45.9611C111.468 44.682 111.769 43.5883 112.003 42.68C112.17 42.0389 112.272 41.602 112.316 41.3631C112.357 41.1274 112.379 40.9231 112.379 40.7597C112.379 40.5271 112.218 40.3291 111.898 40.172C111.579 40.0149 111.057 39.908 110.336 39.8514V39.1191H115.677V39.8514V39.8546Z" fill="#CC1517"></path>
  <path d="M128.764 49.4466L128.482 53.7555H116.256V53.0232C116.465 53.0106 116.74 52.9823 117.088 52.9352C117.433 52.8912 117.657 52.844 117.762 52.7969C117.983 52.6932 118.138 52.5612 118.223 52.3946C118.312 52.228 118.353 52.0206 118.353 51.766V41.2469C118.353 41.0206 118.315 40.8195 118.239 40.6435C118.163 40.4675 118.005 40.326 117.762 40.216C117.575 40.128 117.325 40.0463 117.009 39.9803C116.693 39.9112 116.443 39.8703 116.256 39.8546V39.1223H127.654V42.6486H126.876C126.737 42.1269 126.439 41.5706 125.978 40.9829C125.519 40.3952 125.079 40.0746 124.665 40.018C124.45 39.9929 124.194 39.9709 123.897 39.9552C123.599 39.9426 123.261 39.9332 122.882 39.9332H120.567V45.7506H122.227C122.761 45.7506 123.147 45.7003 123.397 45.6029C123.644 45.5023 123.859 45.3357 124.045 45.1032C124.197 44.902 124.327 44.638 124.434 44.3017C124.542 43.9686 124.611 43.6543 124.649 43.3589H125.427V49.0946H124.649C124.621 48.7646 124.548 48.4157 124.428 48.048C124.305 47.6803 124.178 47.4163 124.049 47.2497C123.833 46.9826 123.59 46.8066 123.318 46.7249C123.043 46.6432 122.682 46.5992 122.233 46.5992H120.573V50.9866C120.573 51.4266 120.605 51.7723 120.668 52.0269C120.731 52.2783 120.851 52.4732 121.032 52.602C121.212 52.734 121.458 52.8189 121.768 52.8535C122.081 52.8912 122.524 52.91 123.097 52.91H123.998C124.371 52.91 124.687 52.8975 124.943 52.8692C125.209 52.8409 125.478 52.7906 125.759 52.7215C126.041 52.6492 126.24 52.5517 126.357 52.426C126.673 52.096 127.012 51.5963 127.36 50.9269C127.707 50.2575 127.932 49.7609 128.03 49.4466H128.776H128.764Z" fill="#CC1517"></path>
  <path d="M139.431 47.0454C139.741 47.388 139.971 47.7652 140.12 48.1737C140.269 48.5823 140.341 49.06 140.341 49.6006C140.341 50.8923 139.861 51.9609 138.899 52.8C137.938 53.6392 136.743 54.0572 135.319 54.0572C134.662 54.0572 134.004 53.9566 133.349 53.7523C132.692 53.548 132.125 53.3029 131.645 53.0137L131.199 53.7649H130.367L130.222 48.752H131.063C131.237 49.3712 131.439 49.9306 131.67 50.4272C131.904 50.9269 132.208 51.392 132.59 51.8257C132.948 52.2312 133.371 52.5549 133.852 52.7969C134.333 53.0357 134.893 53.1583 135.528 53.1583C136.006 53.1583 136.423 53.0954 136.781 52.9697C137.138 52.8472 137.426 52.6712 137.647 52.4449C137.868 52.2186 138.033 51.9514 138.14 51.6434C138.248 51.3354 138.302 50.9834 138.302 50.5843C138.302 49.9997 138.137 49.456 137.805 48.9469C137.473 48.4409 136.977 48.0574 136.322 47.7966C135.873 47.6206 135.357 47.4226 134.776 47.2057C134.194 46.9889 133.694 46.7877 133.27 46.596C132.439 46.2252 131.793 45.738 131.335 45.1377C130.876 44.5374 130.645 43.7517 130.645 42.7806C130.645 42.2243 130.759 41.7057 130.987 41.2249C131.218 40.744 131.54 40.3134 131.964 39.9363C132.366 39.578 132.84 39.2983 133.384 39.0972C133.931 38.896 134.5 38.7923 135.098 38.7923C135.775 38.7923 136.382 38.8929 136.916 39.1003C137.454 39.3046 137.941 39.5466 138.384 39.82L138.811 39.1192H139.639L139.722 43.978H138.88C138.729 43.4186 138.558 42.8874 138.368 42.3783C138.178 41.8692 137.932 41.4103 137.628 40.9986C137.331 40.5994 136.967 40.282 136.54 40.0432C136.11 39.8043 135.585 39.688 134.962 39.688C134.304 39.688 133.745 39.8954 133.28 40.3166C132.818 40.7346 132.587 41.2469 132.587 41.8503C132.587 42.482 132.736 43.0069 133.033 43.4249C133.33 43.8429 133.764 44.1823 134.33 44.4526C134.836 44.6914 135.332 44.902 135.819 45.078C136.309 45.254 136.781 45.4426 137.236 45.6406C137.653 45.8197 138.052 46.024 138.438 46.2503C138.82 46.4797 139.155 46.7406 139.437 47.0454" fill="#CC1517"></path>
  <path d="M154.167 43.0949H153.449C153.386 42.8466 153.275 42.5543 153.111 42.2117C152.946 41.8723 152.766 41.5517 152.567 41.25C152.358 40.9357 152.13 40.656 151.884 40.4171C151.637 40.1814 151.4 40.0463 151.172 40.0086C150.957 39.9834 150.688 39.9614 150.359 39.9457C150.034 39.9331 149.733 39.9237 149.455 39.9237H148.854V51.6309C148.854 51.8571 148.902 52.0646 149 52.2563C149.098 52.4449 149.265 52.5926 149.509 52.6963C149.635 52.7434 149.895 52.8094 150.293 52.8911C150.692 52.9729 151.001 53.02 151.223 53.0263V53.7586H144.269V53.0263C144.462 53.0137 144.759 52.9854 145.157 52.9446C145.556 52.9037 145.831 52.8503 145.983 52.7906C146.214 52.7026 146.378 52.5706 146.486 52.404C146.593 52.2343 146.647 52.0111 146.647 51.7283V39.93H146.046C145.831 39.93 145.565 39.9363 145.246 39.9457C144.93 39.9551 144.623 39.9803 144.332 40.0117C144.104 40.04 143.867 40.1751 143.624 40.4203C143.377 40.6654 143.149 40.942 142.944 41.2531C142.735 41.5611 142.552 41.8911 142.393 42.2369C142.235 42.5857 142.125 42.8717 142.061 43.098H141.334V39.1254H154.173V43.098L154.167 43.0949Z" fill="#CC1517"></path>
</svg>
